<svg width="40" height="40" viewBox="0 0 40 40" fill="none" xmlns="http://www.w3.org/2000/svg">
<path d="M20 40C31.0457 40 40 31.0457 40 20C40 8.9543 31.0457 0 20 0C8.9543 0 0 8.9543 0 20C0 31.0457 8.9543 40 20 40Z" fill="#0388CC"/>
<path d="M16.6091 19.5823L25.1252 16.0239L21.9675 24.2305L16.6091 19.5823Z" fill="white"/>
<path d="M16.6091 19.5822L20.7703 13.3047L25.1251 16.0239L16.6091 19.5822Z" fill="white"/>
<path d="M13.9102 26.0863L16.6091 19.5823L21.9675 24.2305L13.9102 26.0863Z" fill="white"/>
<path d="M13.9102 26.0863L13.7773 18.2896L16.6091 19.5823L13.9102 26.0863Z" fill="white"/>
<path d="M16.6091 19.5823L13.7773 18.2896L20.7703 13.3047L16.6091 19.5823Z" fill="white"/>
</svg> 