<svg width="100" height="32" viewBox="0 0 100 32" fill="none" xmlns="http://www.w3.org/2000/svg">
  <path d="M16 0C7.16344 0 0 7.16344 0 16C0 24.8366 7.16344 32 16 32C24.8366 32 32 24.8366 32 16C32 7.16344 24.8366 0 16 0Z" fill="#0088CC"/>
  <path d="M22.9267 9.0933C22.56 8.96 20.7467 9.64 18.6533 10.44C16.56 11.24 14.28 12.1333 12.5333 12.84C10.7867 13.5467 9.62667 14.0667 9.58667 14.1067C9.48 14.2133 9.32 14.4533 9.32 14.72C9.32 14.92 9.36 15.08 9.48 15.2C9.70667 15.4533 11.1867 16.12 12.8533 16.8667C13.2133 17.0267 13.6 17.04 13.9867 16.88C14.68 16.6 17.64 14.9733 17.92 14.9733C18.0933 14.9733 18.2667 15.2533 18.0667 15.3867C17.7333 15.6 16.0533 16.8533 15.3867 17.3733C15.1467 17.56 15 17.7067 14.9867 17.72C14.92 17.7867 14.7733 17.9333 14.5867 18.08C14 18.5733 13.5733 18.9067 14.1467 19.28C14.7067 19.6533 16.0133 20.5067 16.8667 21.0267C17.72 21.5467 18.1467 21.7733 18.4 21.8267C18.5733 21.8667 18.7467 21.88 18.9067 21.8667C19.0667 21.8533 19.2133 21.7867 19.3467 21.68C19.4533 21.5867 21.0933 19.56 21.84 18.5467C22.2667 17.9733 22.6 17.4267 22.8533 17C23.3333 16.1333 23.8267 14.6 23.56 13.92C23.3333 13.2933 23.24 13.2 22.9267 9.0933Z" fill="white"/>
  <path d="M45.7913 18.8V12.64H47.9593C48.4313 12.64 48.8473 12.724 49.2073 12.892C49.5673 13.06 49.8473 13.3 50.0473 13.612C50.2473 13.924 50.3473 14.288 50.3473 14.704C50.3473 15.116 50.2473 15.48 50.0473 15.796C49.8473 16.108 49.5673 16.348 49.2073 16.516C48.8473 16.684 48.4313 16.768 47.9593 16.768H46.2953L47.0113 16.072V18.8H45.7913ZM47.0113 16.012L46.2953 15.28H47.9113C48.3833 15.28 48.7433 15.172 48.9913 14.956C49.2393 14.74 49.3633 14.456 49.3633 14.104C49.3633 13.748 49.2393 13.464 48.9913 13.252C48.7433 13.036 48.3833 12.928 47.9113 12.928H46.2953L47.0113 14.236V16.012Z" fill="black"/>
  <path d="M51.7266 18.8V12.64H52.9706V18.8H51.7266Z" fill="black"/>
  <path d="M56.5366 18.8H55.2926V12.64H56.5126V17.488L59.6806 12.64H60.7606V18.8H59.5406V13.952L56.5366 18.8Z" fill="black"/>
  <path d="M65.5883 18.8H64.3683V12.64H65.5883V18.8Z" fill="black"/>
  <path d="M71.0493 18.8H69.8293V12.64H71.0493V18.8Z" fill="black"/>
  <path d="M76.1023 18.8H74.8823V12.64H76.1023V18.8Z" fill="black"/>
  <path d="M82.1513 18.8H80.9313V12.64H82.1513V18.8Z" fill="black"/>
  <path d="M86.7703 18.8H85.5503V12.64H86.7703V18.8Z" fill="black"/>
  <path d="M93.2633 18.8H91.9713L89.7673 12.64H91.1033L92.6713 17.284L94.3073 12.64H95.4673L93.2633 18.8Z" fill="black"/>
</svg> 